<?xml version="1.0" standalone="no"?>
<!DOCTYPE svg PUBLIC "-//W3C//DTD SVG 20010904//EN"
 "http://www.w3.org/TR/2001/REC-SVG-20010904/DTD/svg10.dtd">
<svg version="1.0" xmlns="http://www.w3.org/2000/svg"
 width="341.000000pt" height="341.000000pt" viewBox="0 0 341.000000 341.000000"
 preserveAspectRatio="xMidYMid meet">
<metadata>
Created by potrace 1.13, written by Peter Selinger 2001-2015
</metadata>
<g transform="translate(0.000000,341.000000) scale(0.100000,-0.100000)"
fill="#000000" stroke="none">
<path d="M455 3395 c-97 -27 -195 -84 -270 -159 -85 -84 -137 -173 -165 -281
-19 -76 -20 -111 -20 -1254 0 -1000 2 -1184 15 -1231 58 -217 238 -394 455
-444 96 -23 2396 -24 2480 -1 102 27 198 82 275 159 85 84 137 173 165 281 19
76 20 111 20 1254 0 1301 4 1219 -66 1361 -51 103 -161 212 -264 262 -144 71
-74 68 -1390 67 -966 -1 -1194 -3 -1235 -14z m1555 -560 c470 -105 811 -393
911 -770 28 -104 30 -288 6 -389 -77 -313 -341 -595 -901 -965 -208 -137 -330
-201 -384 -201 -51 0 -55 13 -34 138 19 121 12 166 -29 191 -16 10 -81 28
-143 39 -417 79 -740 306 -892 625 -56 118 -76 213 -76 357 0 151 21 242 87
375 157 317 507 548 932 615 92 14 435 4 523 -15z"/>
<path d="M930 2130 c-19 -19 -20 -33 -20 -290 0 -338 -16 -310 183 -310 165 0
187 8 187 65 0 53 -26 65 -142 65 l-98 0 0 219 c0 206 -1 220 -21 245 -25 31
-61 34 -89 6z"/>
<path d="M1364 2129 c-17 -19 -19 -41 -22 -278 -2 -278 1 -298 50 -315 20 -7
33 -5 52 8 l26 16 0 279 c0 257 -1 279 -18 294 -25 23 -65 21 -88 -4z"/>
<path d="M1590 2130 c-19 -19 -20 -33 -20 -290 0 -257 1 -271 20 -290 26 -26
62 -25 86 1 16 18 20 42 24 181 l5 160 120 -163 c66 -90 128 -172 138 -181 25
-26 62 -22 86 8 20 25 21 39 21 289 0 260 0 262 -23 283 -27 25 -55 28 -83 8
-17 -13 -19 -31 -24 -183 l-5 -168 -110 150 c-60 82 -123 164 -139 182 -33 38
-66 43 -96 13z"/>
<path d="M2177 2132 c-15 -16 -17 -52 -17 -295 0 -274 0 -276 22 -291 18 -13
52 -16 165 -16 130 0 145 2 163 20 11 11 20 31 20 45 0 14 -9 34 -20 45 -17
17 -33 20 -120 20 l-100 0 0 60 0 60 103 0 c88 0 106 3 120 18 25 28 21 67 -9
91 -23 18 -41 21 -120 21 l-94 0 0 55 0 55 100 0 c113 0 140 14 140 69 0 53
-26 61 -191 61 -129 0 -148 -2 -162 -18z"/>
</g>
</svg>
